<svg width="28" height="28" viewBox="0 0 28 28" fill="none" xmlns="http://www.w3.org/2000/svg">
<rect x="0.5" y="0.5" width="27" height="27" rx="13.5" fill="#FEFEFE"/>
<rect x="0.5" y="0.5" width="27" height="27" rx="13.5" stroke="#FEC113"/>
<path fill-rule="evenodd" clip-rule="evenodd" d="M14.0007 8.6665C14.3688 8.6665 14.6673 8.96498 14.6673 9.33317L14.6673 17.057L17.5292 14.1951C17.7896 13.9348 18.2117 13.9348 18.4721 14.1951C18.7324 14.4554 18.7324 14.8776 18.4721 15.1379L14.9435 18.6665C14.4228 19.1872 13.5785 19.1872 13.0578 18.6665L9.52925 15.1379C9.2689 14.8776 9.2689 14.4554 9.52925 14.1951C9.7896 13.9347 10.2117 13.9347 10.4721 14.1951L13.334 17.057L13.334 9.33317C13.334 8.96498 13.6325 8.6665 14.0007 8.6665Z" fill="#121212"/>
</svg>
