<svg width="139" height="27" viewBox="0 0 139 27" fill="none" xmlns="http://www.w3.org/2000/svg">
<path d="M40.9369 20.3701V5.75193H43.6935V11.5574H44.0693L48.8098 5.75193H52.3391L46.2412 12.9566L52.5479 20.3701H48.9142L44.0693 14.4393H43.6935V20.3701H40.9369ZM58.7153 20.6625C57.685 20.6625 56.7592 20.4536 55.9378 20.036C55.1164 19.6183 54.469 19.0127 53.9957 18.2192C53.5223 17.4256 53.2857 16.4719 53.2857 15.3582V15.024C53.2857 13.9103 53.5223 12.9566 53.9957 12.163C54.469 11.3695 55.1164 10.7639 55.9378 10.3462C56.7592 9.92855 57.685 9.71972 58.7153 9.71972C59.7455 9.71972 60.6713 9.92855 61.4927 10.3462C62.3141 10.7639 62.9615 11.3695 63.4349 12.163C63.9082 12.9566 64.1449 13.9103 64.1449 15.024V15.3582C64.1449 16.4719 63.9082 17.4256 63.4349 18.2192C62.9615 19.0127 62.3141 19.6183 61.4927 20.036C60.6713 20.4536 59.7455 20.6625 58.7153 20.6625ZM58.7153 18.3236C59.5228 18.3236 60.191 18.066 60.72 17.5509C61.2491 17.0219 61.5136 16.2701 61.5136 15.2955V15.0867C61.5136 14.1121 61.2491 13.3673 60.72 12.8522C60.2049 12.3232 59.5367 12.0586 58.7153 12.0586C57.9078 12.0586 57.2395 12.3232 56.7105 12.8522C56.1815 13.3673 55.9169 14.1121 55.9169 15.0867V15.2955C55.9169 16.2701 56.1815 17.0219 56.7105 17.5509C57.2395 18.066 57.9078 18.3236 58.7153 18.3236ZM72.7969 20.6625C71.8641 20.6625 71.1471 20.5024 70.6459 20.1822C70.1447 19.862 69.7758 19.5069 69.5391 19.1171H69.1632V20.3701H66.5737V5.75193H69.205V11.2024H69.5809C69.734 10.9518 69.9359 10.7152 70.1865 10.4924C70.451 10.2696 70.7921 10.0887 71.2097 9.94944C71.6413 9.79629 72.1704 9.71972 72.7969 9.71972C73.6322 9.71972 74.4049 9.92855 75.1149 10.3462C75.8249 10.75 76.3957 11.3486 76.8273 12.1422C77.2589 12.9357 77.4747 13.8963 77.4747 15.024V15.3582C77.4747 16.4859 77.2589 17.4465 76.8273 18.24C76.3957 19.0336 75.8249 19.6392 75.1149 20.0569C74.4049 20.4606 73.6322 20.6625 72.7969 20.6625ZM72.0033 18.3653C72.8108 18.3653 73.486 18.1078 74.029 17.5927C74.5719 17.0636 74.8434 16.2979 74.8434 15.2955V15.0867C74.8434 14.0843 74.5719 13.3255 74.029 12.8104C73.4999 12.2814 72.8247 12.0169 72.0033 12.0169C71.1958 12.0169 70.5206 12.2814 69.9776 12.8104C69.4347 13.3255 69.1632 14.0843 69.1632 15.0867V15.2955C69.1632 16.2979 69.4347 17.0636 69.9776 17.5927C70.5206 18.1078 71.1958 18.3653 72.0033 18.3653ZM84.8192 20.6625C83.7889 20.6625 82.8631 20.4536 82.0417 20.036C81.2203 19.6183 80.5729 19.0127 80.0996 18.2192C79.6262 17.4256 79.3896 16.4719 79.3896 15.3582V15.024C79.3896 13.9103 79.6262 12.9566 80.0996 12.163C80.5729 11.3695 81.2203 10.7639 82.0417 10.3462C82.8631 9.92855 83.7889 9.71972 84.8192 9.71972C85.8494 9.71972 86.7752 9.92855 87.5966 10.3462C88.418 10.7639 89.0654 11.3695 89.5388 12.163C90.0121 12.9566 90.2488 13.9103 90.2488 15.024V15.3582C90.2488 16.4719 90.0121 17.4256 89.5388 18.2192C89.0654 19.0127 88.418 19.6183 87.5966 20.036C86.7752 20.4536 85.8494 20.6625 84.8192 20.6625ZM84.8192 18.3236C85.6267 18.3236 86.2949 18.066 86.824 17.5509C87.353 17.0219 87.6175 16.2701 87.6175 15.2955V15.0867C87.6175 14.1121 87.353 13.3673 86.824 12.8522C86.3088 12.3232 85.6406 12.0586 84.8192 12.0586C84.0117 12.0586 83.3434 12.3232 82.8144 12.8522C82.2854 13.3673 82.0208 14.1121 82.0208 15.0867V15.2955C82.0208 16.2701 82.2854 17.0219 82.8144 17.5509C83.3434 18.066 84.0117 18.3236 84.8192 18.3236ZM96.8542 20.6625C96.0328 20.6625 95.2601 20.4606 94.5362 20.0569C93.8262 19.6392 93.2554 19.0336 92.8238 18.24C92.3922 17.4465 92.1764 16.4859 92.1764 15.3582V15.024C92.1764 13.8963 92.3922 12.9357 92.8238 12.1422C93.2554 11.3486 93.8262 10.75 94.5362 10.3462C95.2462 9.92855 96.0189 9.71972 96.8542 9.71972C97.4807 9.71972 98.0028 9.79629 98.4205 9.94944C98.852 10.0887 99.2001 10.2696 99.4646 10.4924C99.7291 10.7152 99.931 10.9518 100.07 11.2024H100.446V5.75193H103.077V20.3701H100.488V19.1171H100.112C99.8753 19.5069 99.5064 19.862 99.0052 20.1822C98.5179 20.5024 97.8009 20.6625 96.8542 20.6625ZM97.6478 18.3653C98.4553 18.3653 99.1305 18.1078 99.6734 17.5927C100.216 17.0636 100.488 16.2979 100.488 15.2955V15.0867C100.488 14.0843 100.216 13.3255 99.6734 12.8104C99.1444 12.2814 98.4692 12.0169 97.6478 12.0169C96.8403 12.0169 96.1651 12.2814 95.6221 12.8104C95.0792 13.3255 94.8077 14.0843 94.8077 15.0867V15.2955C94.8077 16.2979 95.0792 17.0636 95.6221 17.5927C96.1651 18.1078 96.8403 18.3653 97.6478 18.3653ZM105.995 20.3701V10.0121H108.584V11.1815H108.96C109.113 10.7639 109.364 10.4576 109.712 10.2627C110.074 10.0678 110.491 9.97032 110.965 9.97032H112.218V12.3092H110.923C110.255 12.3092 109.705 12.4902 109.273 12.8522C108.842 13.2002 108.626 13.7432 108.626 14.4811V20.3701H105.995ZM118.836 20.6625C117.806 20.6625 116.88 20.4536 116.058 20.036C115.237 19.6183 114.59 19.0127 114.116 18.2192C113.643 17.4256 113.406 16.4719 113.406 15.3582V15.024C113.406 13.9103 113.643 12.9566 114.116 12.163C114.59 11.3695 115.237 10.7639 116.058 10.3462C116.88 9.92855 117.806 9.71972 118.836 9.71972C119.866 9.71972 120.792 9.92855 121.613 10.3462C122.435 10.7639 123.082 11.3695 123.555 12.163C124.029 12.9566 124.265 13.9103 124.265 15.024V15.3582C124.265 16.4719 124.029 17.4256 123.555 18.2192C123.082 19.0127 122.435 19.6183 121.613 20.036C120.792 20.4536 119.866 20.6625 118.836 20.6625ZM118.836 18.3236C119.643 18.3236 120.312 18.066 120.841 17.5509C121.37 17.0219 121.634 16.2701 121.634 15.2955V15.0867C121.634 14.1121 121.37 13.3673 120.841 12.8522C120.325 12.3232 119.657 12.0586 118.836 12.0586C118.028 12.0586 117.36 12.3232 116.831 12.8522C116.302 13.3673 116.037 14.1121 116.037 15.0867V15.2955C116.037 16.2701 116.302 17.0219 116.831 17.5509C117.36 18.066 118.028 18.3236 118.836 18.3236ZM126.694 24.5467V10.0121H129.284V11.2651H129.66C129.896 10.8613 130.265 10.5063 130.766 10.2C131.268 9.87983 131.985 9.71972 132.917 9.71972C133.753 9.71972 134.525 9.92855 135.235 10.3462C135.945 10.75 136.516 11.3486 136.948 12.1422C137.379 12.9357 137.595 13.8963 137.595 15.024V15.3582C137.595 16.4859 137.379 17.4465 136.948 18.24C136.516 19.0336 135.945 19.6392 135.235 20.0569C134.525 20.4606 133.753 20.6625 132.917 20.6625C132.291 20.6625 131.762 20.5859 131.33 20.4328C130.913 20.2935 130.572 20.1126 130.307 19.8898C130.056 19.6531 129.855 19.4165 129.701 19.1798H129.326V24.5467H126.694ZM132.124 18.3653C132.945 18.3653 133.62 18.1078 134.15 17.5927C134.692 17.0636 134.964 16.2979 134.964 15.2955V15.0867C134.964 14.0843 134.692 13.3255 134.15 12.8104C133.607 12.2814 132.931 12.0169 132.124 12.0169C131.316 12.0169 130.641 12.2814 130.098 12.8104C129.555 13.3255 129.284 14.0843 129.284 15.0867V15.2955C129.284 16.2979 129.555 17.0636 130.098 17.5927C130.641 18.1078 131.316 18.3653 132.124 18.3653Z" fill="white"/>
<rect x="2" y="1.63477" width="27.667" height="24" rx="6.59467" fill="white" stroke="white" stroke-width="2.74778" stroke-miterlimit="10" stroke-linecap="round" stroke-linejoin="round"/>
<path d="M31.0384 9.23804H19.9101C17.482 9.23804 15.5137 11.2064 15.5137 13.6345C15.5137 16.0626 17.482 18.0309 19.9101 18.0309H31.0384V9.23804Z" fill="#4CBFFF"/>
<circle cx="19.7627" cy="13.6345" r="2.19822" fill="white"/>
</svg>
