<svg width="139" height="28" viewBox="0 0 139 28" fill="none" xmlns="http://www.w3.org/2000/svg">
<path d="M40.9369 20.7354V6.11716H43.6935V11.9227H44.0693L48.8098 6.11716H52.3391L46.2412 13.3218L52.5479 20.7354H48.9142L44.0693 14.8045H43.6935V20.7354H40.9369ZM58.7153 21.0277C57.685 21.0277 56.7592 20.8189 55.9378 20.4012C55.1164 19.9836 54.469 19.3779 53.9957 18.5844C53.5223 17.7908 53.2857 16.8372 53.2857 15.7234V15.3893C53.2857 14.2755 53.5223 13.3218 53.9957 12.5283C54.469 11.7347 55.1164 11.1291 55.9378 10.7115C56.7592 10.2938 57.685 10.085 58.7153 10.085C59.7455 10.085 60.6713 10.2938 61.4927 10.7115C62.3141 11.1291 62.9615 11.7347 63.4349 12.5283C63.9082 13.3218 64.1449 14.2755 64.1449 15.3893V15.7234C64.1449 16.8372 63.9082 17.7908 63.4349 18.5844C62.9615 19.3779 62.3141 19.9836 61.4927 20.4012C60.6713 20.8189 59.7455 21.0277 58.7153 21.0277ZM58.7153 18.6888C59.5228 18.6888 60.191 18.4312 60.72 17.9161C61.2491 17.3871 61.5136 16.6353 61.5136 15.6608V15.4519C61.5136 14.4774 61.2491 13.7325 60.72 13.2174C60.2049 12.6884 59.5367 12.4239 58.7153 12.4239C57.9078 12.4239 57.2395 12.6884 56.7105 13.2174C56.1815 13.7325 55.9169 14.4774 55.9169 15.4519V15.6608C55.9169 16.6353 56.1815 17.3871 56.7105 17.9161C57.2395 18.4312 57.9078 18.6888 58.7153 18.6888ZM72.7969 21.0277C71.8641 21.0277 71.1471 20.8676 70.6459 20.5474C70.1447 20.2272 69.7758 19.8722 69.5391 19.4824H69.1632V20.7354H66.5737V6.11716H69.205V11.5677H69.5809C69.734 11.3171 69.9359 11.0804 70.1865 10.8576C70.451 10.6349 70.7921 10.4539 71.2097 10.3147C71.6413 10.1615 72.1704 10.085 72.7969 10.085C73.6322 10.085 74.4049 10.2938 75.1149 10.7115C75.8249 11.1152 76.3957 11.7138 76.8273 12.5074C77.2589 13.301 77.4747 14.2616 77.4747 15.3893V15.7234C77.4747 16.8511 77.2589 17.8117 76.8273 18.6053C76.3957 19.3988 75.8249 20.0044 75.1149 20.4221C74.4049 20.8258 73.6322 21.0277 72.7969 21.0277ZM72.0033 18.7306C72.8108 18.7306 73.486 18.473 74.029 17.9579C74.5719 17.4289 74.8434 16.6631 74.8434 15.6608V15.4519C74.8434 14.4495 74.5719 13.6908 74.029 13.1757C73.4999 12.6466 72.8247 12.3821 72.0033 12.3821C71.1958 12.3821 70.5206 12.6466 69.9776 13.1757C69.4347 13.6908 69.1632 14.4495 69.1632 15.4519V15.6608C69.1632 16.6631 69.4347 17.4289 69.9776 17.9579C70.5206 18.473 71.1958 18.7306 72.0033 18.7306ZM84.8192 21.0277C83.7889 21.0277 82.8631 20.8189 82.0417 20.4012C81.2203 19.9836 80.5729 19.3779 80.0996 18.5844C79.6262 17.7908 79.3896 16.8372 79.3896 15.7234V15.3893C79.3896 14.2755 79.6262 13.3218 80.0996 12.5283C80.5729 11.7347 81.2203 11.1291 82.0417 10.7115C82.8631 10.2938 83.7889 10.085 84.8192 10.085C85.8494 10.085 86.7752 10.2938 87.5966 10.7115C88.418 11.1291 89.0654 11.7347 89.5388 12.5283C90.0121 13.3218 90.2488 14.2755 90.2488 15.3893V15.7234C90.2488 16.8372 90.0121 17.7908 89.5388 18.5844C89.0654 19.3779 88.418 19.9836 87.5966 20.4012C86.7752 20.8189 85.8494 21.0277 84.8192 21.0277ZM84.8192 18.6888C85.6267 18.6888 86.2949 18.4312 86.824 17.9161C87.353 17.3871 87.6175 16.6353 87.6175 15.6608V15.4519C87.6175 14.4774 87.353 13.7325 86.824 13.2174C86.3088 12.6884 85.6406 12.4239 84.8192 12.4239C84.0117 12.4239 83.3434 12.6884 82.8144 13.2174C82.2854 13.7325 82.0208 14.4774 82.0208 15.4519V15.6608C82.0208 16.6353 82.2854 17.3871 82.8144 17.9161C83.3434 18.4312 84.0117 18.6888 84.8192 18.6888ZM96.8542 21.0277C96.0328 21.0277 95.2601 20.8258 94.5362 20.4221C93.8262 20.0044 93.2554 19.3988 92.8238 18.6053C92.3922 17.8117 92.1764 16.8511 92.1764 15.7234V15.3893C92.1764 14.2616 92.3922 13.301 92.8238 12.5074C93.2554 11.7138 93.8262 11.1152 94.5362 10.7115C95.2462 10.2938 96.0189 10.085 96.8542 10.085C97.4807 10.085 98.0028 10.1615 98.4205 10.3147C98.852 10.4539 99.2001 10.6349 99.4646 10.8576C99.7291 11.0804 99.931 11.3171 100.07 11.5677H100.446V6.11716H103.077V20.7354H100.488V19.4824H100.112C99.8753 19.8722 99.5064 20.2272 99.0052 20.5474C98.5179 20.8676 97.8009 21.0277 96.8542 21.0277ZM97.6478 18.7306C98.4553 18.7306 99.1305 18.473 99.6734 17.9579C100.216 17.4289 100.488 16.6631 100.488 15.6608V15.4519C100.488 14.4495 100.216 13.6908 99.6734 13.1757C99.1444 12.6466 98.4692 12.3821 97.6478 12.3821C96.8403 12.3821 96.1651 12.6466 95.6221 13.1757C95.0792 13.6908 94.8077 14.4495 94.8077 15.4519V15.6608C94.8077 16.6631 95.0792 17.4289 95.6221 17.9579C96.1651 18.473 96.8403 18.7306 97.6478 18.7306ZM105.995 20.7354V10.3773H108.584V11.5468H108.96C109.113 11.1291 109.364 10.8228 109.712 10.6279C110.074 10.433 110.491 10.3356 110.965 10.3356H112.218V12.6745H110.923C110.255 12.6745 109.705 12.8555 109.273 13.2174C108.842 13.5655 108.626 14.1084 108.626 14.8463V20.7354H105.995ZM118.836 21.0277C117.806 21.0277 116.88 20.8189 116.058 20.4012C115.237 19.9836 114.59 19.3779 114.116 18.5844C113.643 17.7908 113.406 16.8372 113.406 15.7234V15.3893C113.406 14.2755 113.643 13.3218 114.116 12.5283C114.59 11.7347 115.237 11.1291 116.058 10.7115C116.88 10.2938 117.806 10.085 118.836 10.085C119.866 10.085 120.792 10.2938 121.613 10.7115C122.435 11.1291 123.082 11.7347 123.555 12.5283C124.029 13.3218 124.265 14.2755 124.265 15.3893V15.7234C124.265 16.8372 124.029 17.7908 123.555 18.5844C123.082 19.3779 122.435 19.9836 121.613 20.4012C120.792 20.8189 119.866 21.0277 118.836 21.0277ZM118.836 18.6888C119.643 18.6888 120.312 18.4312 120.841 17.9161C121.37 17.3871 121.634 16.6353 121.634 15.6608V15.4519C121.634 14.4774 121.37 13.7325 120.841 13.2174C120.325 12.6884 119.657 12.4239 118.836 12.4239C118.028 12.4239 117.36 12.6884 116.831 13.2174C116.302 13.7325 116.037 14.4774 116.037 15.4519V15.6608C116.037 16.6353 116.302 17.3871 116.831 17.9161C117.36 18.4312 118.028 18.6888 118.836 18.6888ZM126.694 24.912V10.3773H129.284V11.6303H129.66C129.896 11.2266 130.265 10.8716 130.766 10.5653C131.268 10.2451 131.985 10.085 132.917 10.085C133.753 10.085 134.525 10.2938 135.235 10.7115C135.945 11.1152 136.516 11.7138 136.948 12.5074C137.379 13.301 137.595 14.2616 137.595 15.3893V15.7234C137.595 16.8511 137.379 17.8117 136.948 18.6053C136.516 19.3988 135.945 20.0044 135.235 20.4221C134.525 20.8258 133.753 21.0277 132.917 21.0277C132.291 21.0277 131.762 20.9511 131.33 20.798C130.913 20.6588 130.572 20.4778 130.307 20.255C130.056 20.0184 129.855 19.7817 129.701 19.545H129.326V24.912H126.694ZM132.124 18.7306C132.945 18.7306 133.62 18.473 134.15 17.9579C134.692 17.4289 134.964 16.6631 134.964 15.6608V15.4519C134.964 14.4495 134.692 13.6908 134.15 13.1757C133.607 12.6466 132.931 12.3821 132.124 12.3821C131.316 12.3821 130.641 12.6466 130.098 13.1757C129.555 13.6908 129.284 14.4495 129.284 15.4519V15.6608C129.284 16.6631 129.555 17.4289 130.098 17.9579C130.641 18.473 131.316 18.7306 132.124 18.7306Z" fill="#023047"/>
<rect x="2" y="2" width="27.667" height="24" rx="6.59467" fill="#023047" stroke="#023047" stroke-width="2.74778" stroke-miterlimit="10" stroke-linecap="round" stroke-linejoin="round"/>
<path d="M31.0384 9.60327H19.9101C17.482 9.60327 15.5137 11.5716 15.5137 13.9997C15.5137 16.4278 17.482 18.3962 19.9101 18.3962H31.0384V9.60327Z" fill="#4CBFFF"/>
<circle cx="19.7627" cy="13.9997" r="2.19822" fill="white"/>
</svg>
